<?xml version="1.0" encoding="UTF-8" standalone="no"?>
<svg
   width="1024"
   height="1024"
   viewBox="0 0 1024 1024"
   version="1.1"
   id="svg12"
   xmlns="http://www.w3.org/2000/svg"
   xmlns:svg="http://www.w3.org/2000/svg">
  <defs
     id="defs12" />
  <path
     fill="#3db7ae"
     d="m 667.075,207.333 c -0.041,-7.606 -1.206,-50.025 0.93,-54.491 0.866,-1.811 4.234,-3.313 5.996,-4.101 9.708,-4.343 21.121,-7.544 31.217,-11.296 l 30.297,-11.067 c 6.503,-2.394 12.876,-5.297 19.494,-7.366 3.043,-0.951 7.266,-1.969 10.215,-0.25 1.638,0.955 2.296,2.303 2.828,4.048 0.571,2.849 0.46,5.699 0.432,8.59 l -0.075,65.79 c 0.011,11.268 -0.332,22.683 0.148,33.935 l -0.005,0.872 c 12.888,8.049 24.591,18.868 34.813,30.089 -9.351,11.447 -17.917,24.395 -16.294,39.891 0.921,9.048 5.455,17.342 12.575,23.001 11.345,9.062 27.419,11.095 41.443,9.402 1.335,-0.163 2.668,-0.337 3.999,-0.523 3.15,13.057 4.371,26.098 4.628,39.493 0.864,45.006 -12.351,87.455 -35.726,125.734 -4.35,7.123 -9.186,14.955 -14.702,21.226 -2.214,2.517 -5.819,3.876 -7.758,6.592 -2.64,3.696 -2.988,8.624 -5.504,12.392 -10.463,15.669 -23.876,30.443 -36.661,44.291 -15.836,16.916 -32.274,33.258 -49.281,48.996 -36.963,33.803 -75.193,66.195 -114.607,97.108 -10.214,8.137 -20.473,16.219 -30.774,24.246 -6.3,4.875 -12.684,10.063 -19.44,14.29 -4.283,2.679 -8.969,5.009 -13.89,6.236 -10.78,2.685 -21.78,-0.075 -31.086,-5.784 -5.849,-3.587 -11.319,-8.074 -16.762,-12.251 -9.595,-7.392 -19.116,-14.881 -28.56,-22.465 -27.893,-22.009 -55.149,-44.812 -81.734,-68.383 -14.381,-12.933 -28.09,-26.456 -42.068,-39.805 13.358,-23.172 18.438,-49.626 11.622,-75.743 -5.981,-22.916 -19.523,-42.256 -40.18,-54.2 -23.946,-13.847 -49.802,-13.915 -75.939,-6.998 -3.509,1.348 -7.995,3.9 -11.584,4.541 -1.082,-2.762 -2.535,-5.248 -4.018,-7.807 l -10.422,-19.909 0.094,-0.398 c 5.321,-1.128 28.965,-0.268 35.737,-0.282 28.57,-0.056 57.46,-0.956 86.005,0.054 1.675,-0.267 3.384,-0.511 4.996,-1.058 10.341,-3.507 12.963,-25.78 17.692,-35.092 0.082,-0.162 0.168,-0.322 0.253,-0.483 8.521,23.915 17.184,47.779 25.988,71.592 3.413,9.285 10.259,32.47 15.741,39.002 2.017,2.403 6.106,3.996 9.189,4.1 3.296,0.111 6.18,-1.203 8.565,-3.422 2.714,-2.525 3.555,-5.745 4.56,-9.181 3.452,-11.808 5.808,-24.133 8.547,-36.131 l 13.574,-59.123 7.324,-31.753 c 1.705,-7.299 4.109,-14.971 4.44,-22.464 3.719,12.344 5.448,25.781 8.07,38.43 l 17.919,86.481 c 2.104,9.685 3.815,23.959 7.457,32.811 1.302,3.167 3.124,5.458 6.403,6.689 3.194,1.199 6.959,1.056 9.996,-0.525 2.112,-1.1 3.955,-2.84 4.958,-5.018 3.167,-6.879 4.311,-15.681 6.057,-23.089 4.051,-17.179 7.708,-34.931 13.116,-51.724 7.006,0.018 14.672,0.599 21.536,-0.751 1.875,-1.597 3.005,-3.004 4.107,-5.214 3.706,-7.428 5.974,-16.103 8.67,-23.972 3.751,-10.951 7.826,-21.826 11.295,-32.868 l 16.684,71.574 c 2.722,11.863 4.702,24.61 8.504,36.154 0.866,2.629 1.797,4.968 3.892,6.868 2.561,2.342 5.982,3.511 9.44,3.223 2.632,-0.229 5.107,-1.351 7.014,-3.179 3.553,-3.411 5.902,-8.465 8.269,-12.737 4.999,-9.019 16.159,-31.902 22.028,-38.739 0.095,-0.111 0.194,-0.219 0.292,-0.329 9.674,-0.092 19.349,-0.132 29.024,-0.118 23.94,0.008 42.325,1.454 63.485,14.111 7.962,4.763 14.609,10.956 22.266,16.046 2.731,1.815 4.513,2.469 7.825,1.71 3.336,-0.766 6.243,-2.83 7.923,-5.835 1.203,-2.152 1.436,-4.53 0.717,-6.885 -2.832,-9.264 -27.404,-23.92 -36.3,-28.512 -9.968,-5.144 -20.336,-8.972 -31.37,-11.056 -3.996,-0.762 -8.039,-1.26 -12.1,-1.49 -8.766,-0.481 -56.39,-1.209 -62.84,1.016 -2.159,0.745 -4.004,1.909 -5.557,3.586 -5.661,6.111 -12.975,23.574 -16.718,31.673 -3.699,-10.069 -5.666,-21.147 -8.162,-31.588 l -14.119,-60.392 c -2.193,-9.504 -3.659,-20.595 -7.449,-29.545 -1.381,-3.262 -3.282,-5.769 -6.688,-7.073 -2.855,-1.106 -6.038,-0.988 -8.803,0.325 -2.137,1.034 -3.715,2.608 -4.847,4.683 -4.982,9.131 -8.463,23.126 -12.001,33.239 -6.298,18 -13.106,35.831 -19.261,53.879 -5.754,0.056 -14.714,-1.068 -19.75,2.04 -2.209,1.363 -3.594,4.536 -4.468,6.856 -1.887,5.01 -2.748,10.612 -4.065,15.801 -2.133,8.405 -4.549,16.77 -6.373,25.248 -8.833,-41.531 -16.426,-83.329 -24.94,-124.925 -2.228,-10.887 -4.733,-32.335 -9.166,-41.616 -1.514,-3.171 -3.991,-5.663 -7.366,-6.793 -3.105,-1.053 -6.512,-0.726 -9.359,0.9 -2.877,1.647 -4.614,4.206 -5.726,7.271 -2.181,6.016 -3.301,12.475 -4.696,18.713 l -6.652,29.691 c -8.877,38.776 -17.088,77.855 -27.195,116.327 -4.419,-9.041 -7.422,-19.254 -10.843,-28.727 -7.273,-20.141 -14.206,-40.463 -21.757,-60.496 -1.864,-4.947 -4.162,-10.473 -9.353,-12.666 -3.151,-1.337 -6.721,-1.27 -9.818,0.185 -2.194,1.041 -4.041,2.692 -5.322,4.754 -3.458,5.548 -5.32,13.046 -7.49,19.223 l -10.108,28.417 c -6.718,-0.196 -13.529,0.216 -20.258,0.262 l -43.495,0.144 -39.288,0.08 c -8.148,0.018 -16.377,-0.195 -24.51,0.303 -12.158,-40.624 -13.728,-82.041 -1.238,-122.836 13.022,-43.44 42.854,-79.88 82.868,-101.223 37.034,-19.555 81.603,-22.702 121.45,-10.284 55.082,17.167 99.993,59.841 126.549,110.254 3.582,-6.649 7.349,-13.118 11.689,-19.304 31.517,-44.92 76.264,-81.634 131.497,-91.332 4.057,-0.74 8.067,-1.444 12.179,-1.811 z m 18.683,-0.921 c 11.198,-0.079 22.364,1.196 33.256,3.796 4.726,1.176 9.519,3.555 14.341,4.046 5.62,-0.385 11.415,-0.639 16.956,0.611 -1.07,-5.676 -0.386,-12.578 -0.376,-18.395 l 0.085,-36.193 -0.175,-2.254 -0.531,-0.254 c -13.945,5.554 -27.947,10.967 -42.001,16.237 -7.232,2.744 -14.693,5.273 -21.781,8.352 0.109,7.98 0.497,16.079 0.226,24.054 z"
     id="path1" />
  <path
     fill="#fba24e"
     d="m 667.075,207.333 c -0.041,-7.606 -1.206,-50.025 0.93,-54.491 0.866,-1.811 4.234,-3.313 5.996,-4.101 9.708,-4.343 21.121,-7.544 31.217,-11.296 l 30.297,-11.067 c 6.503,-2.394 12.876,-5.297 19.494,-7.366 3.043,-0.951 7.266,-1.969 10.215,-0.25 1.638,0.955 2.296,2.303 2.828,4.048 0.571,2.849 0.46,5.699 0.432,8.59 l -0.075,65.79 c 0.011,11.268 -0.332,22.683 0.148,33.935 l -0.005,0.872 -0.576,0.698 c 0.222,2.905 -0.389,5.896 -1.327,8.639 -3.004,8.786 -10.732,15.968 -19.014,19.819 -8.336,3.876 -18.603,5.324 -27.365,1.992 -6.132,-2.331 -10.803,-6.525 -13.342,-12.629 -2.246,-5.4 -1.934,-11.242 0.403,-16.556 5.018,-11.406 15.096,-15.69 26.024,-19.706 5.62,-0.385 11.415,-0.639 16.956,0.611 -1.07,-5.676 -0.386,-12.578 -0.376,-18.395 l 0.085,-36.193 -0.175,-2.254 -0.531,-0.254 c -13.945,5.554 -27.947,10.967 -42.001,16.237 -7.232,2.744 -14.693,5.273 -21.781,8.352 0.109,7.98 0.497,16.079 0.226,24.054 -0.085,9.402 -0.085,18.806 0.002,28.208 0.08,16.321 1.485,29.185 -11.258,41.513 -6.914,6.689 -16.535,11.214 -26.278,10.885 -7.336,-0.248 -14.41,-3.097 -19.337,-8.664 -3.873,-4.377 -5.979,-10.15 -5.48,-16.004 0.662,-7.762 5.953,-15.284 11.873,-20.091 9.16,-7.438 20.353,-9.33 31.804,-8.127 z"
     id="path2" />
  <path
     fill="#fba039"
     d="m 768.052,122.81 c 0.571,2.849 0.46,5.699 0.432,8.59 l -0.075,65.79 c 0.011,11.268 -0.332,22.683 0.148,33.935 l -0.005,0.872 -0.576,0.698 c -0.267,-0.407 -0.617,-0.771 -0.802,-1.221 -0.867,-2.113 -0.274,-85.442 -0.037,-95.397 0.106,-4.457 0.54,-8.83 0.915,-13.267 z"
     id="path3" />
  <path
     fill="#35a79f"
     d="m 190.642,465.657 0.094,-0.398 c 5.321,-1.128 28.965,-0.268 35.737,-0.282 28.57,-0.056 57.46,-0.956 86.005,0.054 -2.861,1.68 -107.858,0.84 -121.836,0.626 z"
     id="path4" />
  <path
     fill="#fba24e"
     d="m 866.912,652.794 c -0.029,-3.726 -0.453,-9.398 2.605,-12.211 1.049,-0.965 2.014,-1.297 3.433,-1.29 3.354,0.017 6.686,3.142 8.648,5.557 3.752,4.618 6.411,10.486 10.902,14.423 2.823,2.651 5.915,4.808 9.349,6.6 11.369,7.99 20.522,15.318 23.17,29.795 1.623,8.867 -1.083,20.715 -6.407,28.009 -1.702,2.332 -3.988,4.799 -7,5.14 -0.276,0.031 -0.554,0.04 -0.831,0.06 -1.758,-1.149 -3.059,-1.88 -3.453,-4.116 -0.369,-2.096 0.511,-4.946 0.975,-7.027 2.054,-9.207 0.969,-16.899 -6.489,-23.35 -4.237,-3.665 -9.481,-6.158 -14.435,-8.682 l 0.11,39.451 c 0.02,9.737 0.889,20.984 -1.305,30.498 -3.308,10.373 -9.312,17.824 -19.104,22.805 -7.79,3.962 -16.896,5.58 -25.515,3.795 -5.761,-1.455 -11.19,-4.636 -14.539,-9.654 -3.206,-4.803 -4.034,-10.899 -2.81,-16.49 1.73,-7.902 7.698,-14.63 14.461,-18.784 8.32,-5.112 19.22,-6.791 28.714,-4.564 -0.012,-26.656 -0.172,-53.311 -0.479,-79.965 z"
     id="path5" />
  <path
     fill="#fba24e"
     d="m 768.059,773.325 -0.07,-31.917 c -0.01,-5.877 -0.466,-12.117 0.269,-17.934 0.192,-1.52 0.429,-3.453 1.569,-4.56 4.182,-4.061 50.453,-11.796 57.205,-11.467 1.128,0.055 2.173,0.253 2.982,1.113 0.84,0.891 1.246,2.484 1.08,3.678 -0.316,2.262 -2.472,3.865 -4.295,4.941 -3.368,1.987 -7.103,3.363 -10.622,5.061 -10.474,5.054 -21.206,10.401 -32.113,14.426 0.422,9.65 0.213,19.373 0.213,29.036 -0.001,7.168 0.48,14.889 -0.503,21.995 -0.566,4.093 -1.653,7.719 -3.626,11.375 -5.444,7.151 -12.654,12.004 -21.643,13.4 -6.704,1.041 -14.45,-0.264 -19.881,-4.456 -3.586,-2.768 -5.727,-6.749 -6.3,-11.222 -0.861,-6.723 1.839,-11.81 5.904,-16.846 7.781,-5.885 15.636,-8.787 25.445,-7.368 1.466,0.22 2.929,0.469 4.386,0.745 z"
     id="path6" />
  <path
     fill="#fba24e"
     d="m 227.161,702.797 -24.966,-40.939 c -13.035,-21.399 -27.455,-43.357 -32.401,-68.311 -4.122,-20.801 -1.077,-41.787 10.892,-59.551 11.313,-17.026 29.015,-28.769 49.1,-32.573 20.555,-3.941 42.263,-0.121 59.64,11.707 12.102,8.237 24.586,22.924 27.45,37.65 4.653,13.074 4.862,28.256 1.852,41.736 l -0.271,1.743 c -1.216,4.574 -2.215,9.573 -4.223,13.865 -0.789,2.325 -1.535,4.66 -2.527,6.908 -3.033,8.44 -7.465,17.995 -12.503,25.458 -1.195,2.415 -2.508,4.65 -3.952,6.918 -9.549,17.008 -20.404,33.573 -29.158,50.978 -2.071,2.717 -3.213,6.205 -5.525,8.682 l -1.348,2.874 c -2.243,4.643 -4.511,10.355 -9.168,13.112 -1.954,1.156 -4.22,1.584 -6.433,0.992 -6.164,-1.65 -9.516,-8.933 -12.375,-14.07 -1.18,-2.467 -2.701,-4.818 -4.084,-7.179 z m 23.812,-87.121 c 21.721,-3.253 36.674,-23.522 33.372,-45.235 -3.303,-21.713 -23.606,-36.62 -45.312,-33.267 -21.635,3.342 -36.482,23.565 -33.19,45.207 3.291,21.642 23.48,36.537 45.13,33.295 z"
     id="path7" />
  <path
     fill="#fba039"
     d="m 260.569,707.068 c 0.013,-0.524 10e-4,-1.046 0.141,-1.56 1.298,-4.751 29.075,-52.783 32.843,-56.962 0.529,-0.586 1.003,-0.796 1.699,-1.138 -9.549,17.008 -20.404,33.573 -29.158,50.978 -2.071,2.717 -3.213,6.205 -5.525,8.682 z"
     id="path8" />
  <path
     fill="#fba039"
     d="m 316.876,550.78 c 4.653,13.074 4.862,28.256 1.852,41.736 l -0.271,1.743 c -1.216,4.574 -2.215,9.573 -4.223,13.865 l -0.434,-0.883 c 3.79,-14.142 6.11,-27.515 5.076,-42.227 -0.303,-4.308 -2.147,-9.023 -2.043,-13.212 0.009,-0.341 0.029,-0.682 0.043,-1.022 z"
     id="path9" />
  <path
     fill="#fba039"
     d="m 299.204,640.49 c 0.054,-3.48 2.164,-6.77 3.66,-9.83 1.311,-2.683 6.385,-14.785 8.843,-15.628 -3.033,8.44 -7.465,17.995 -12.503,25.458 z"
     id="path10" />
  <path
     fill="#fba24e"
     d="m 855.923,159.406 c 0.181,-2.276 0.323,-3.953 1.984,-5.641 1.444,-1.467 4.086,-2.238 6.099,-1.989 4.455,0.551 8.125,4.624 10.621,8.062 3.357,4.626 6.415,10.306 10.859,13.981 5.43,4.491 12.168,7.415 17.947,11.436 14.305,9.955 21.881,25.697 18.967,43.113 -1.234,7.373 -5.719,19.211 -11.925,23.721 -1.096,0.796 -2.383,1.305 -3.759,1.104 -1.93,-0.283 -2.986,-1.472 -3.949,-3.034 -0.753,-3.955 1.438,-8.589 2.354,-12.408 2.509,-10.454 -2.083,-20.42 -10.732,-26.344 -4.878,-3.341 -10.754,-6.394 -16.284,-8.515 -0.136,10.054 -0.1,20.111 0.109,30.164 0.3,14.622 2.457,37.962 -1.506,51.266 -2.007,6.737 -6.235,12.563 -11.237,17.414 -6.981,6.769 -14.677,10.296 -24.032,12.524 -8.146,0.925 -15.872,0.647 -23.207,-3.438 -5.852,-3.26 -10.252,-8.455 -12.002,-14.969 -2.307,-8.58 0.231,-15.942 4.604,-23.226 3.531,-3.078 6.094,-6.714 10.2,-9.196 11.198,-6.77 23.467,-6.919 35.85,-3.909 -0.765,-33.37 0.03,-66.75 -0.961,-100.116 z"
     id="path11" />
  <path
     fill="#3db7ae"
     d="m 259.221,709.942 c 11.055,0.813 24.122,2.417 34.038,7.598 2.942,1.537 5.941,3.726 6.821,7.116 0.413,1.594 0.111,3.167 -0.824,4.519 -4.007,5.793 -16.088,8.476 -22.558,9.762 -20.113,3.999 -64.641,5.135 -81.618,-6.614 -1.959,-1.355 -4.722,-3.705 -4.904,-6.301 -0.144,-2.054 0.62,-3.461 1.987,-4.886 7.356,-7.676 28.614,-11.05 39.082,-11.16 2.859,5.137 6.211,12.42 12.375,14.07 2.213,0.592 4.479,0.164 6.433,-0.992 4.657,-2.757 6.925,-8.469 9.168,-13.112 z"
     id="path12" />
  <path
     style="fill:#3db7ae;fill-opacity:1"
     d="m 778.62128,549.58298 40.30638,-58.93447 c 0,0 -26.30808,15.68681 -34.15149,21.13362 -7.8434,5.44681 -13.94383,11.98298 -13.72596,17.64766 0.21788,5.66468 7.57107,20.15319 7.57107,20.15319 z"
     id="path13" />
  <path
     style="fill:#3db7ae;fill-opacity:1"
     d="m 786.84596,537.79064 12.30979,-17.40255 c 0,0 5.90978,-6.69958 -1.96085,-0.59915 -7.87064,6.10042 -12.36426,12.60936 -12.41873,12.7183 -0.0545,0.10893 1.87915,5.22893 1.87915,5.22893 z"
     id="path14" />
  <path
     style="fill:#3db7ae;fill-opacity:1"
     d="m 801.00766,517.88255 -18.19234,25.81788 c 0,0 -2.83234,-0.43575 -2.83234,-2.83234 0,-2.3966 5.66468,-10.89362 5.99149,-11.76511 0.32681,-0.87149 4.46638,-5.01106 5.12,-5.44681 0.65362,-0.43574 5.88255,-4.90213 5.88255,-4.90213 z"
     id="path15" />
  <path
     style="fill:#3db7ae;fill-opacity:1"
     d="M 785.97447,539.01617 801.87915,517.12 c 0,0 -2.3966,-1.74298 -3.9217,-1.08936 -1.52511,0.65362 -5.88256,3.70383 -6.64511,4.46638 -0.76255,0.76256 -4.57532,5.22894 -5.12,6.10043 -0.54468,0.87149 -1.85191,6.3183 -1.85191,7.29872 0,0.98043 1.63404,5.12 1.63404,5.12 z"
     id="path16" />
  <path
     style="fill:#3db7ae;fill-opacity:1"
     d="m 785.92,539.28851 17.32085,-23.85702 c 0,0 0.49022,-1.03489 -1.30723,-0.59915 -1.79745,0.43575 -6.75404,2.01532 -7.08085,2.34213 -0.32681,0.32681 -1.25277,0.49021 -3.32256,2.66894 -2.06978,2.17872 -3.37702,3.70383 -4.13957,5.22893 -0.76255,1.52511 -1.52511,1.90638 -1.74298,4.03064 -0.21787,2.12426 -0.21787,2.66894 -0.32681,3.59489 -0.10893,0.92596 0.59915,6.59064 0.59915,6.59064 z"
     id="path17" />
</svg>
