<?xml version="1.0" encoding="utf-8" ?><svg xmlns="http://www.w3.org/2000/svg" xmlns:xlink="http://www.w3.org/1999/xlink" width="1024" height="1024" viewBox="0 0 1024 1024"><path fill="#3EAD92" d="M79.0695 333.824C78.8632 318.516 78.9316 303.2 78.9156 287.891C78.903 275.912 78.4076 263.733 79.1972 251.784C81.4039 218.388 91.7567 181.68 111.008 153.999C116.609 145.945 123.576 138.449 130.405 131.414C138.298 123.282 147.249 115.304 156.61 108.899C183.143 90.7413 217.996 79.4677 250.198 78.9775C289.918 78.3729 329.742 78.9641 369.474 78.9653L605.755 78.97L714.091 78.9687C744.293 78.9663 775.208 77.0236 804.933 83.2016C838.931 90.2677 868.178 106.498 893.117 130.522C925.81 162.016 944.441 210.887 945.037 255.908C945.277 274.062 945.016 292.248 945.011 310.405C945.007 323.73 945.386 337.176 944.938 350.488C945.845 365.739 945.014 381.579 945.011 396.884L944.997 489.808L945.041 653.098C945.051 678.1 945.477 703.166 945.163 728.162C944.55 777.043 925.937 823.724 890.806 857.988C866.593 881.394 836.238 897.452 803.266 904.299C775.3 909.863 746.362 908.013 717.983 907.999L607.723 907.993L369.892 907.995C330.796 907.995 291.577 908.657 252.492 908.014C209.018 907.298 161.53 887.496 131.425 855.98C108.567 832.051 92.2731 803.767 84.7918 771.411C77.0648 737.992 78.9078 703.34 78.9339 669.289L78.9697 567.183L78.9982 412.849C79.0016 386.562 78.3386 360.094 79.0695 333.824Z"/><defs><linearGradient id="gradient_0" gradientUnits="userSpaceOnUse" x1="511.55499" y1="907.28229" x2="512.23285" y2="277.96506"><stop offset="0" stop-color="#FFAD59"/><stop offset="1" stop-color="#CBC992"/></linearGradient></defs><path fill="url(#gradient_0)" d="M79.0695 333.824C81.2843 328.065 80.1601 296.981 80.196 289.387C80.2126 285.879 79.6749 281.004 80.9793 277.732C81.1247 278.029 81.3852 278.534 81.4635 278.831C81.7895 280.068 81.2753 279.047 81.7883 280.38C82.4657 282.14 86.1362 285.002 88.0088 285.223C89.6506 285.417 90.4895 284.267 91.6785 283.314C95.6811 284.988 101.287 283.15 105.647 283.524C116.142 284.422 126.798 284.755 137.333 284.809C139.583 284.82 141.558 283.854 143.877 283.94C146.589 284.04 149.385 283.942 152.075 284.237C156.151 284.684 159.962 285.789 164.108 285.746C169.735 285.686 176.544 285.278 182.024 284.052C182.808 283.876 183.307 283.68 184.123 283.811C192.497 285.15 199.637 283.661 207.935 283.086C211.659 282.829 215.457 283.03 219.188 283.136C220.958 284.048 221.655 286.011 222.731 287.606C228.331 288.018 233.306 281.212 238.775 280.751C239.402 282.421 226.44 296.914 226.806 301.458C208.925 336.708 202.816 369.664 208.111 408.94C209.249 417.38 211.412 425.564 212.8 433.937C214.68 440.028 216.376 448.768 219.887 454.058C223.528 463.422 228.288 472.177 233.114 480.968C255.658 472.782 278.874 469.319 301.365 479.806C322.351 489.591 337.423 508.759 345.06 530.309C354.054 555.69 349.611 578.493 339.945 602.824C352.343 616.579 365.449 629.678 379.211 642.068C402.526 663.442 427.548 682.923 452.49 702.341C465.592 712.542 478.854 724.15 493.346 732.251C498.982 735.402 504.119 737.536 510.641 737.799C517.234 738.065 523.586 736.499 529.433 733.468C546.202 724.774 562.796 710.101 577.624 698.274C616.884 666.928 654.941 634.105 691.714 599.875C713.529 579.256 734.069 557.328 753.219 534.212C758.195 528.102 762.742 521.668 767.553 515.432C766.604 514.462 765.643 513.493 764.745 512.476C762.339 509.75 760.641 506.309 761.011 502.58C761.209 500.588 762.063 498.688 763.687 497.462C765.46 496.123 767.681 495.848 769.832 496.118C773.423 496.569 775.174 498.371 777.356 501.099C780.394 496.595 783.305 492.007 786.086 487.34C813.418 441.058 823.084 388.549 809.578 336.051C803.604 337.259 797.23 337.725 791.139 337.438C780.177 336.924 768.187 332.827 760.609 324.576C760.456 322.471 758.297 320.305 757.226 318.419C752.623 310.322 751.015 299.041 754.379 290.211L755.415 289.913C756.042 290.296 756.654 290.686 757.273 291.081C759.021 292.198 761.741 292.048 763.278 293.281C765.656 295.187 766.645 301.55 768.343 304.416C775.311 316.181 793.104 318.354 805.253 315.324C810.414 314.036 816.313 311.585 821.082 309.211C826.611 306.459 831.164 301.238 837.749 301.766C842.194 302.123 847.139 302.787 851.577 302.197C855.737 301.644 860.093 300.251 864.288 300.215C868.003 300.183 871.326 301.76 875.198 301.478C881.136 301.047 887.115 300.791 893.041 300.252C896.118 299.972 899.237 299.366 902.321 299.275C906.007 299.167 909.68 300.502 913.394 300.433C919.816 300.313 925.841 298.039 932.045 300.41C934.909 301.504 938.907 298.256 940.733 299.294C941.09 300.011 941.445 300.725 941.776 301.453C942.933 299.655 943.074 295.494 943.071 293.346C944.467 297.302 943.627 303.302 943.569 307.541L943.414 333.98C943.4 338.427 942.993 343.42 943.602 347.809C943.781 349.102 944.15 349.486 944.938 350.488C945.845 365.739 945.014 381.579 945.011 396.884L944.997 489.808L945.041 653.098C945.051 678.1 945.477 703.166 945.163 728.162C944.55 777.043 925.937 823.724 890.806 857.988C866.593 881.394 836.238 897.452 803.266 904.299C775.3 909.863 746.362 908.013 717.983 907.999L607.723 907.993L369.892 907.995C330.796 907.995 291.577 908.657 252.492 908.014C209.018 907.298 161.53 887.496 131.425 855.98C108.567 832.051 92.2731 803.767 84.7918 771.411C77.0648 737.992 78.9078 703.34 78.9339 669.289L78.9697 567.183L78.9982 412.849C79.0016 386.562 78.3386 360.094 79.0695 333.824Z"/><path fill="#FEFBF4" d="M767.553 515.432C766.604 514.462 765.643 513.493 764.745 512.476C762.339 509.75 760.641 506.309 761.011 502.58C761.209 500.588 762.063 498.688 763.687 497.462C765.46 496.123 767.681 495.848 769.832 496.118C773.423 496.569 775.174 498.371 777.356 501.099C781.099 505.584 786.52 511.01 786.136 517.283C786.037 518.902 785.499 520.614 784.278 521.746C782.678 523.23 780.246 523.462 778.188 523.104C773.699 522.324 770.208 518.938 767.553 515.432Z"/><path fill="#FE913D" d="M255.339 679.163C247.734 661.529 235.392 645.379 224.813 629.413C220.062 622.245 215.836 614.624 211.723 607.077C198.14 582.15 189.916 558.557 201.131 530.703C208.381 512.697 224.345 498.28 242.072 490.92C258.873 483.944 278.054 483.041 294.956 490.171C314.805 498.545 325.881 513.296 333.71 532.828C340.973 550.948 339.644 570.042 331.917 587.859C327.99 596.915 322.968 605.659 318.413 614.422C307.178 636.029 295.446 657.257 284.992 679.265C283.328 683.92 279.001 691.735 274.59 693.981C272.283 695.155 269.534 695.388 267.093 694.49C260.689 692.131 258.017 684.838 255.339 679.163Z"/><path fill="#F1BD76" d="M265.279 520.734C284.814 519.1 301.934 533.706 303.398 553.254C304.862 572.802 290.108 589.795 270.548 591.089C251.227 592.367 234.487 577.832 233.041 558.523C231.595 539.214 245.983 522.348 265.279 520.734Z"/><path fill="#FE913D" d="M838.422 621.356C839.3 621.335 840.207 621.383 841.066 621.572C849.516 623.424 854.862 634.524 861.147 639.723C869.449 646.591 876.981 647.119 883.355 657.392C888.649 665.925 890.238 676.74 887.835 686.471C886.539 691.72 883.187 698.793 878.303 701.493C876.959 702.236 875.827 702.405 874.35 701.908C870.073 698.166 876.568 687.084 873.492 678.344C870.294 669.256 861.855 666.526 853.988 662.586C853.461 681.418 854.211 700.435 854.187 719.293C854.15 721.127 853.988 722.909 853.668 724.717C852.143 733.352 847.03 741.864 839.759 746.826C832.836 751.549 822.631 753.313 814.476 751.6C808.379 750.319 802.271 747.01 798.832 741.682C796.081 737.359 795.211 732.102 796.422 727.123C798.098 719.974 803.808 713.542 809.988 709.749C818.226 704.692 827.208 704.281 836.413 706.415C836.889 681.578 835.907 656.676 835.906 631.833C835.906 629.831 835.426 625.016 836.345 623.437C836.733 622.77 837.847 621.932 838.422 621.356Z"/><path fill="#FE913D" d="M796.154 682.674C797.83 682.473 799.772 682.035 801.36 682.798C802.502 683.346 802.795 684.001 803.043 685.156C802.389 686.917 801.28 687.973 799.795 689.071C796.797 691.287 793.091 692.736 789.756 694.386C779.795 699.314 769.207 703.695 759.581 709.165C759.487 721.492 761.04 747.849 757.938 758.393C755.984 765.035 751.842 770.721 745.6 773.912C737.573 778.015 728.618 778.095 720.21 775.227C718.333 774.275 716.24 773.201 714.716 771.733C711.898 769.017 710.373 765.128 710.365 761.243C710.353 755.988 712.734 750.939 716.481 747.31C724.322 739.715 734.816 739.314 745.01 739.504C745.158 730.382 744.036 699.335 746.141 692.847C750.289 688.981 788.387 683.834 796.154 682.674Z"/><path fill="#3EAD92" d="M255.339 679.163C258.017 684.838 260.689 692.131 267.093 694.49C269.534 695.388 272.283 695.155 274.59 693.981C279.001 691.735 283.328 683.92 284.992 679.265C292.16 681.458 299.595 681.754 306.743 684.553C310.837 686.156 316.939 689.215 318.425 693.668C318.997 695.38 318.687 696.633 317.819 698.142C314.804 703.383 308.235 705.867 302.706 707.494C281.607 713.699 247.258 714.242 227.584 703.212C225.024 701.776 221.56 699.372 220.972 696.236C220.668 694.615 220.983 693.2 221.876 691.838C227.468 683.31 245.985 680.775 255.339 679.163Z"/><path fill="#FEFBF4" d="M273.548 727.51C274.611 727.428 275.743 727.307 276.804 727.445C281.597 728.068 288.561 737.018 291.11 740.821C292.739 743.251 294.08 746.162 293.314 749.153C292.584 752.005 290.323 753.394 287.889 754.693C286.712 754.892 285.464 755.004 284.277 754.799C279.38 753.952 272.794 745.985 270.17 741.977C268.428 739.317 267.296 736.294 268.115 733.099C268.845 730.251 271.174 728.898 273.548 727.51Z"/><path fill="#FEFBF4" d="M586.973 757.006C588.172 756.989 589.242 757.16 590.378 757.538C592.486 758.24 594.879 760.628 595.667 762.687C596.286 764.306 596.289 765.8 595.576 767.39C592.821 773.54 581.65 777.651 575.682 779.973C573.904 779.884 572.158 779.765 570.526 778.984C568.714 778.118 567.456 776.494 566.82 774.612C566.2 772.775 566.292 770.869 567.178 769.134C569.872 763.858 581.425 758.742 586.973 757.006Z"/><path fill="#FEFBF4" d="M791.596 592.957C793.1 592.752 794.882 592.727 796.361 593.113C798.276 593.612 799.799 594.91 800.686 596.664C802.825 600.894 800.939 606.509 799.578 610.727C797.951 615.767 796.334 620.01 791.397 622.518C789.807 622.64 788.357 622.679 786.81 622.217C784.844 621.63 783.26 620.491 782.315 618.646C780.811 615.705 781.458 612.357 782.332 609.337C784.093 603.248 785.765 596.179 791.596 592.957Z"/><path fill="#FEFBF4" d="M413.409 794.644C418.787 793.81 425.465 794.236 430.86 795.018C433.687 795.428 436.721 796.494 438.389 798.964C439.615 800.779 439.818 803.138 439.313 805.232C438.646 807.995 436.376 809.464 434.098 810.846C428.309 811.301 416.263 810.586 410.75 808.632C409.137 806.077 407.52 803.551 408.282 800.399C408.949 797.637 411.134 796.066 413.409 794.644Z"/><path fill="#FEFBF4" d="M361.466 787.124C366.715 787.642 372.789 788.179 377.788 789.864C380.658 790.831 383.527 792.319 384.857 795.204C385.721 797.079 385.717 799.576 384.875 801.457C383.688 804.109 381.172 805.263 378.591 806.178C372.581 805.011 364.348 804.418 358.897 801.714C356.862 800.705 355.339 799.276 354.653 797.077C354.021 795.053 354.842 792.239 355.934 790.516C357.237 788.462 359.209 787.692 361.466 787.124Z"/><path fill="#FEFBF4" d="M794.182 541.589C795.466 541.693 797.045 541.793 798.2 542.408C800.474 543.621 801.788 546.637 802.442 548.978C803.897 554.181 805.037 563.559 802.074 568.343C800.583 570.751 798.307 571.362 795.692 571.905C794.469 571.723 793.078 571.587 791.95 571.064C789.496 569.927 788.15 566.999 787.454 564.55C785.987 559.38 785.123 550.418 787.911 545.614C789.338 543.155 791.553 542.265 794.182 541.589Z"/><path fill="#FEFBF4" d="M634.468 728.007C635.84 728.12 637.209 728.225 638.503 728.728C640.352 729.446 641.607 730.741 642.386 732.559C643.245 734.563 643.183 736.679 642.252 738.645C639.602 744.238 628.484 749.626 622.719 751.515C621.334 751.497 619.834 751.493 618.55 750.919C616.734 750.107 614.887 747.916 614.263 746.041C613.742 744.479 614.004 742.83 614.71 741.381C617.588 735.463 628.39 729.964 634.468 728.007Z"/><path fill="#FEFBF4" d="M313.071 765.505C314.231 765.498 315.474 765.473 316.601 765.774C321.894 767.186 332.449 772.88 334.882 778.025C335.683 779.718 335.881 781.459 335.136 783.216C334.025 785.834 331.449 787.162 328.949 788.108C327.915 788.121 326.87 788.1 325.852 787.9C320.674 786.884 310.303 781.743 307.553 777.171C306.578 775.55 306.167 773.683 306.716 771.841C307.639 768.744 310.392 766.959 313.071 765.505Z"/><path fill="#FEFBF4" d="M763.232 637.069C765.251 636.767 767.413 636.6 769.319 637.46C772.136 638.731 773.211 641.765 774.314 644.416C773.982 645.619 773.66 646.824 773.24 647.999C771.295 653.438 763.642 660.867 758.43 663.262C757.117 663.564 755.503 663.695 754.177 663.409C752.338 663.012 750.415 661.611 749.398 660.038C748.493 658.639 748.289 656.939 748.62 655.329C749.656 650.288 758.943 639.885 763.232 637.069Z"/><path fill="#FEFBF4" d="M722.159 671.011C723.698 670.931 725.307 670.876 726.814 671.26C728.802 671.765 730.236 673.034 731.181 674.823C732.15 676.657 732.358 678.648 731.687 680.622C729.735 686.367 719.178 692.363 713.85 695.077C712.273 695.227 710.859 695.248 709.324 694.777C707.332 694.166 705.862 692.955 704.93 691.09C704.026 689.284 703.84 687.362 704.493 685.44C706.349 679.977 717.021 673.494 722.159 671.011Z"/><path fill="#FEFBF4" d="M483.718 793.724C485.608 793.765 487.707 793.925 489.358 794.933C491.267 796.1 492.8 798.095 493.197 800.323C493.519 802.199 493.037 804.123 491.867 805.625C488.013 810.631 479.246 809.542 473.534 810.508L472.926 810.616C470.512 810.668 467.827 810.856 465.808 809.301C463.855 807.797 462.274 805.588 462.031 803.084C461.868 801.409 462.399 799.817 463.503 798.55C467.601 793.848 477.827 794.165 483.718 793.724Z"/><path fill="#FEFBF4" d="M536.479 779.591C538.127 779.493 539.847 779.633 541.405 780.201C543.582 780.995 545.404 783.038 546.277 785.156C546.895 786.657 546.891 788.176 546.159 789.629C543.273 795.357 531.973 797.25 526.239 799.079C524.289 799.462 522.394 799.486 520.543 798.648C518.561 797.749 516.842 795.827 516.153 793.765C515.565 792.004 515.705 790.122 516.606 788.491C519.522 783.212 530.961 781.077 536.479 779.591Z"/><path fill="#FEFBF4" d="M678.912 701.582C680.648 701.414 682.329 701.208 683.967 701.946C685.922 702.828 687.607 704.506 688.263 706.575C688.84 708.394 688.573 710.406 687.681 712.076C684.716 717.625 675.033 720.985 669.347 722.906C667.552 723.163 665.798 723.4 664.044 722.799C662.146 722.149 660.761 720.524 659.952 718.73C659.174 717.007 659.077 715.24 659.831 713.483C662.478 707.314 673.124 703.788 678.912 701.582Z"/><defs><linearGradient id="gradient_1" gradientUnits="userSpaceOnUse" x1="510.75101" y1="314.50446" x2="514.99817" y2="75.338425"><stop offset="0" stop-color="#C6C48F"/><stop offset="1" stop-color="#6BD0B0"/></linearGradient></defs><path fill="url(#gradient_1)" d="M79.0695 333.824C78.8632 318.516 78.9316 303.2 78.9156 287.891C78.903 275.912 78.4076 263.733 79.1972 251.784C81.4039 218.388 91.7567 181.68 111.008 153.999C116.609 145.945 123.576 138.449 130.405 131.414C138.298 123.282 147.249 115.304 156.61 108.899C183.143 90.7413 217.996 79.4677 250.198 78.9775C289.918 78.3729 329.742 78.9641 369.474 78.9653L605.755 78.97L714.091 78.9687C744.293 78.9663 775.208 77.0236 804.933 83.2016C838.931 90.2677 868.178 106.498 893.117 130.522C925.81 162.016 944.441 210.887 945.037 255.908C945.277 274.062 945.016 292.248 945.011 310.405C945.007 323.73 945.386 337.176 944.938 350.488C944.15 349.486 943.781 349.102 943.602 347.809C942.993 343.42 943.4 338.427 943.414 333.98L943.569 307.541C943.627 303.302 944.467 297.302 943.071 293.346C943.074 295.494 942.933 299.655 941.776 301.453C941.445 300.725 941.09 300.011 940.733 299.294C938.907 298.256 934.909 301.504 932.045 300.41C925.841 298.039 919.816 300.313 913.394 300.433C909.68 300.502 906.007 299.167 902.321 299.275C899.237 299.366 896.118 299.972 893.041 300.252C887.115 300.791 881.136 301.047 875.198 301.478C871.326 301.76 868.003 300.183 864.288 300.215C860.093 300.251 855.737 301.644 851.577 302.197C847.139 302.787 842.194 302.123 837.749 301.766C831.164 301.238 826.611 306.459 821.082 309.211C816.313 311.585 810.414 314.036 805.253 315.324C793.104 318.354 775.311 316.181 768.343 304.416C766.645 301.55 765.656 295.187 763.278 293.281C761.741 292.048 759.021 292.198 757.273 291.081C756.654 290.686 756.042 290.296 755.415 289.913L754.379 290.211C751.015 299.041 752.623 310.322 757.226 318.419C758.297 320.305 760.456 322.471 760.609 324.576C760.425 324.455 760.225 324.355 760.058 324.211C755.079 319.942 752.379 310.451 751.974 304.157C750.956 288.349 758.3 277.083 768.307 265.744C759.447 254.254 745.119 245.215 733.067 237.369C732.559 226.953 733.729 137.77 731.994 135.728C731.1 134.674 729.867 134.398 728.537 134.372C726.477 134.332 724.445 134.876 722.503 135.513C714.429 138.161 706.699 141.845 698.679 144.643L664.478 156.953C658.667 159.02 652.651 160.72 646.915 162.96C645.461 163.528 643.21 164.318 642.199 165.556C640.954 167.082 640.521 169.391 640.279 171.295C639.523 177.235 640.048 183.807 640.06 189.818C640.157 202.03 640.136 214.243 639.996 226.455C591.702 234.118 553.282 256.49 524.419 296.353C519.663 303.012 515.248 309.909 511.192 317.016C506.016 308.618 500.865 300.251 494.863 292.408C470.249 260.241 435.758 235.149 396.02 225.731C357.332 216.42 316.527 222.949 282.676 243.868C265.588 254.449 249.597 268.552 237.658 284.757C234.876 288.534 229.247 299.105 226.806 301.458C226.44 296.914 239.402 282.421 238.775 280.751C233.306 281.212 228.331 288.018 222.731 287.606C221.655 286.011 220.958 284.048 219.188 283.136C215.457 283.03 211.659 282.829 207.935 283.086C199.637 283.661 192.497 285.15 184.123 283.811C183.307 283.68 182.808 283.876 182.024 284.052C176.544 285.278 169.735 285.686 164.108 285.746C159.962 285.789 156.151 284.684 152.075 284.237C149.385 283.942 146.589 284.04 143.877 283.94C141.558 283.854 139.583 284.82 137.333 284.809C126.798 284.755 116.142 284.422 105.647 283.524C101.287 283.15 95.6811 284.988 91.6785 283.314C90.4895 284.267 89.6506 285.417 88.0088 285.223C86.1362 285.002 82.4657 282.14 81.7883 280.38C81.2753 279.047 81.7895 280.068 81.4635 278.831C81.3852 278.534 81.1247 278.029 80.9793 277.732C79.6749 281.004 80.2126 285.879 80.196 289.387C80.1601 296.981 81.2843 328.065 79.0695 333.824Z"/><path fill="#FE913D" d="M817.356 165.501C818.673 165.474 819.846 165.477 821.102 165.922C830.164 169.132 835.447 180.189 842.395 186.23C845.354 188.803 848.657 190.516 852.065 192.411C860.426 197.059 866.967 202.303 871.215 211.087C876.13 221.248 876.545 234.329 872.764 244.923C871.055 249.712 866.062 258.76 861.003 260.532C859.726 260.979 858.654 260.936 857.493 260.195C852.686 257.126 857.377 247.237 858.133 242.929C858.626 240.127 858.647 237.353 858.093 234.556C855.165 219.776 844.105 219.259 833.989 212.389C833.184 233.547 833.811 254.941 833.819 276.125C833.757 279.851 833.341 283.335 832.319 286.921C829.375 297.248 823.304 305.77 813.809 310.961C804.376 316.021 793.322 317.135 783.069 314.058C777.068 312.206 771.484 308.61 768.574 302.874C765.713 297.233 765.692 289.645 767.701 283.688C770.291 276.009 776.893 269.873 783.975 266.243C793.675 261.272 803.709 260.455 814.046 263.752C814.624 241.627 814.136 219.369 814.128 197.23C814.124 188.77 813.563 179.917 814.14 171.504C814.351 168.441 815.104 167.5 817.356 165.501Z"/><path fill="#FEFBF4" d="M396.561 482.142C399.515 471.359 401.621 460.239 404.21 449.351L422.072 373.237L428.219 346.94C429.561 341.162 430.584 334.977 432.763 329.463C433.717 327.044 435.459 325.017 437.707 323.711C440.703 321.963 444.279 321.503 447.62 322.436C450.485 323.253 453.173 325.215 454.624 327.846C458.601 335.052 463.407 366.322 465.46 376.316C472.068 408.483 479.314 440.691 484.943 473.041C486.363 465.314 489.334 448.755 492.612 442.175C493.621 440.149 495.083 438.383 496.978 437.13C502.197 433.681 509.413 433.918 515.404 433.988L533.159 384.226C536.263 375.437 538.962 364.805 543.341 356.679C544.454 354.571 546.187 352.855 548.307 351.765C550.044 350.862 552.085 350.346 553.976 349.844C557.56 350.67 560.946 351.262 562.932 354.749C566.04 360.206 568.863 376.669 570.456 383.391L583.525 438.906C585.769 448.531 587.709 458.364 590.307 467.893C594.907 459.494 601.692 444.485 608.102 437.992C610.095 435.973 612.429 434.649 615.14 433.835C622.835 431.523 665.257 432.489 674.695 433.218C679.722 433.59 684.712 434.349 689.623 435.488C699.552 437.817 708.726 442.05 717.583 447.031C724.406 450.868 742.854 461.864 745.046 469.147C745.912 472.025 745.534 475.134 744.003 477.721C742.386 480.436 739.778 482.224 736.698 482.876C733.311 483.593 730.685 481.934 727.986 480.078C722.953 476.619 718.537 472.418 713.341 469.157C678.259 447.133 659.841 456.801 622.564 454.195C617.159 463.846 611.593 473.405 605.866 482.868C602.962 487.651 600.169 492.978 596.419 497.145C594.438 499.346 592.27 501.126 589.375 501.959C586.381 502.847 583.154 502.462 580.453 500.896C572.577 496.369 570.554 481.659 568.609 473.487L557.57 426.359C555.383 416.934 552.908 407.447 551.26 397.914C548.417 408.899 544.411 419.615 540.862 430.391C539.053 435.885 537.796 441.824 535.608 447.159C534.929 448.816 533.917 451.164 532.432 452.265C528.277 455.348 514.309 454.921 508.841 454.612C506.451 467.275 502.49 479.938 499.246 492.425C497.009 501.038 495.364 510.561 492.224 518.868C491.275 521.377 490.249 524.021 487.916 525.539C485.712 526.982 482.993 527.407 480.455 526.704C478.224 526.094 476.131 524.616 474.972 522.589C472.172 517.695 470.468 505.653 469.174 499.833L460.196 459.315C454.331 432.764 447.496 405.981 442.657 379.268C441.386 387.863 438.874 396.401 436.804 404.842L426.213 448.054L416.138 489.339C414.099 497.732 412.38 506.473 409.505 514.623C408.412 517.723 407.313 520.208 404.584 522.234C401.894 524.23 398.489 525.149 395.171 524.587C392.256 524.094 389.647 522.462 388.045 519.972C382.348 511.12 377.537 494.447 373.828 484.089C366.384 463.303 358.808 442.5 351.982 421.504C349.666 428.475 344.674 448.414 338.104 451.612C335.197 453.026 331.571 453.599 328.359 453.864C316.205 454.867 303.36 454.074 291.141 454.064L219.887 454.058C216.376 448.768 214.68 440.028 212.8 433.937L326.581 433.959C329.715 425.986 332.717 417.962 335.586 409.891C337.766 403.624 339.294 395.353 342.822 389.769C344.124 387.744 345.998 386.15 348.207 385.192C349.645 384.567 351.223 384.185 352.734 383.786C356.84 384.753 360.502 385.807 362.889 389.613C367.125 396.37 369.578 405.32 372.242 412.816L384.078 446.277C388.016 457.422 393.745 471.009 396.561 482.142Z"/><path fill="#FE913D" d="M639.996 226.455C640.136 214.243 640.157 202.03 640.06 189.818C640.048 183.807 639.523 177.235 640.279 171.295C640.521 169.391 640.954 167.082 642.199 165.556C643.21 164.318 645.461 163.528 646.915 162.96C652.651 160.72 658.667 159.02 664.478 156.953L698.679 144.643C706.699 141.845 714.429 138.161 722.503 135.513C724.445 134.876 726.477 134.332 728.537 134.372C729.867 134.398 731.1 134.674 731.994 135.728C733.729 137.77 732.559 226.953 733.067 237.369C733.122 239.165 733.161 240.942 732.9 242.726C731.677 251.068 726.68 258.745 720.007 263.777C712.893 269.142 703.667 272.048 694.772 270.624C688.294 269.586 681.075 266.339 677.244 260.865C674.291 256.645 674 251.71 674.914 246.775C676.501 238.204 681.896 231.918 688.896 227.167C683.544 224.36 662.659 225.216 655.545 225.192L655.577 246.369C655.631 259.262 656.52 271.395 646.751 281.332C640.778 287.408 632.398 291.138 623.844 291.098C616.573 291.064 608.134 288.212 602.964 282.98C599.439 279.411 598.188 274.971 598.408 270.039C598.703 262.747 601.931 255.883 607.359 251.005C614.417 244.764 623.281 241.308 632.728 241.963C635.16 242.138 637.573 242.514 639.943 243.087L639.996 226.455Z"/><path fill="#9CC99E" d="M655.359 194.989L694.909 179.845C702.408 177.046 710.11 174.643 717.553 171.733L717.525 223.458C709.658 221.64 702.543 222.032 694.949 224.725C692.951 225.434 690.91 226.621 688.896 227.167C683.544 224.36 662.659 225.216 655.545 225.192C655.427 215.125 655.365 205.057 655.359 194.989Z"/></svg>