<svg width="475" height="456" viewBox="0 0 475 456" fill="none" xmlns="http://www.w3.org/2000/svg">
<path d="M55.9815 383.277L45.783 393.455V407.63H37.8079V352.824H45.783V383.441L76.087 352.824H85.1747L61.334 377.487L86.6844 407.63H77.3452L55.9815 383.277Z" fill="white"/>
<path d="M143.137 352.824V407.63H136.589L103.097 366.773V407.63H95.122V352.824H101.67L135.164 393.681V352.824H143.137Z" fill="white"/>
<path d="M176.253 401.367L179.214 395.268C183.369 398.956 190.462 401.614 197.638 401.614C207.292 401.614 211.426 397.926 211.426 393.166C211.426 379.774 177.617 388.242 177.617 367.886C177.617 359.438 184.313 352.227 198.981 352.227C205.529 352.227 212.288 353.958 216.925 357.089L214.302 363.353C209.433 360.304 203.935 358.882 199.002 358.882C189.518 358.882 185.447 362.796 185.447 367.577C185.447 380.969 219.256 372.583 219.256 392.713C219.256 401.099 212.391 408.289 197.638 408.289C189.098 408.289 180.744 405.466 176.274 401.408L176.253 401.367Z" fill="white"/>
<path d="M225.844 386.882C225.844 374.52 235.183 365.743 247.86 365.743C260.537 365.743 269.79 374.52 269.79 386.882C269.79 399.245 260.536 408.104 247.86 408.104C235.185 408.104 225.844 399.265 225.844 386.882ZM262.045 386.882C262.045 378.043 255.981 372.316 247.86 372.316C239.74 372.316 233.589 378.023 233.589 386.882C233.589 395.742 239.738 401.511 247.86 401.511C255.983 401.511 262.045 395.721 262.045 386.882Z" fill="white"/>
<path d="M280.388 349.528H288.048V407.609H280.388V349.528Z" fill="white"/>
<path d="M340.052 366.134L321.564 407.63H313.755L295.246 366.134H303.221L317.723 399.409L332.56 366.134H340.052Z" fill="white"/>
<path d="M369.957 365.743V373.016C369.328 372.934 368.762 372.934 368.215 372.934C360.009 372.934 354.91 377.858 354.91 386.944V407.61H347.25V366.134H354.595V373.099C357.302 368.236 362.57 365.743 369.977 365.743L369.957 365.743Z" fill="white"/>
<path d="M375.058 386.882C375.058 374.52 384.395 365.743 397.072 365.743C409.75 365.743 419.002 374.52 419.002 386.882C419.002 399.245 409.748 408.104 397.072 408.104C384.397 408.104 375.058 399.265 375.058 386.882ZM411.257 386.882C411.257 378.043 405.193 372.316 397.072 372.316C388.951 372.316 382.801 378.023 382.801 386.882C382.801 395.742 388.928 401.511 397.072 401.511C405.216 401.511 411.257 395.721 411.257 386.882Z" fill="white"/>
<path d="M109.779 133.493L117.164 140.788L228.262 249.861L346.745 133.493H317.113L228.262 220.769L139.365 133.493L109.779 133.493Z" fill="white"/>
<path d="M50.5143 133.493L57.8997 140.788L87.5319 169.88L102.348 155.334L80.1465 133.537H50.5143V133.493ZM376.423 133.493L302.388 206.267L317.158 220.768L406.01 133.493H376.423ZM117.164 169.835L102.347 184.381L131.98 213.473L146.796 198.927L117.164 169.835ZM161.612 213.474L146.796 228.019L228.262 308L272.71 264.362L263.377 255.199L257.894 249.861L228.262 278.952L161.613 213.518L161.612 213.474ZM287.527 220.768L272.756 235.27L287.572 249.816L302.388 235.27L295.003 228.019L287.572 220.768L287.527 220.768Z" fill="white"/>
<path d="M228.262 34.6068L181.911 80.0684L181.684 80.2906H182.138L194.598 92.5235L207.284 105.024L228.036 125.397L236.554 133.76L249.241 146.215L228.262 166.81L207.057 145.993L219.744 133.537H194.371L181.684 145.993L228.262 191.676L274.387 145.948L261.927 133.715L249.241 121.26L220.016 92.5686L207.33 80.113L228.308 59.5617L249.513 80.3799L236.826 92.8346H262.199L274.886 80.3799L228.262 34.6068Z" fill="white"/>
<path d="M249.24 146.214L236.554 158.669L249.15 171.035L261.927 158.402L249.24 146.258L249.24 146.214Z" fill="white"/>
<path d="M207.284 80.0684L220.061 67.5686L207.284 55.2023L194.598 67.6574L207.239 80.1126L207.284 80.0684Z" fill="white"/>
</svg>
