<svg width="84" height="117" viewBox="0 0 84 117" fill="none" xmlns="http://www.w3.org/2000/svg">
<path d="M50.1684 5.54962C50.2498 4.31522 49.853 3.10008 49.0655 2.17151C48.2779 1.24295 47.164 0.677035 45.9688 0.598255C44.7737 0.519475 43.5952 0.934288 42.6925 1.75144C41.7899 2.56859 41.2371 3.72114 41.1557 4.95554C41.1557 4.95554 36.8822 46.9009 35.563 66.9146C34.2437 86.9283 34.2438 86.9283 14.2871 85.6128C4.30871 84.9551 0.76273 88.0715 0.10312 98.0783C-0.55649 108.085 8.98211 115.414 18.9605 116.072C28.9388 116.73 42.4631 114.271 43.5625 97.5929C44.6618 80.9148 48.4328 31.8807 48.4328 31.8807C51.9114 36.993 46.8632 13.797 43.6527 42.4998C48.934 45.5519 54.8154 47.3407 60.8648 47.7347C62.06 47.8135 81.3254 49.1818 82.228 48.3647C83.1307 47.5475 83.6835 46.395 83.7648 45.1606C83.8462 43.9262 83.4495 42.711 82.6619 41.7825C81.8743 40.8539 80.7604 40.288 79.5653 40.2092C71.1992 39.6577 63.402 35.6963 57.889 29.1964C52.376 22.6964 49.5988 14.1905 50.1684 5.54962Z" fill="#FE8A3D"/>
</svg>